<svg width="24" height="24" viewBox="0 0 24 24" xmlns="http://www.w3.org/2000/svg" xmlns:xlink="http://www.w3.org/1999/xlink">
    <path id="Path" fill="#1e9aea" stroke="none" d="M 12 0.297001 C 5.37 0.297001 0 5.67 0 12.297 C 0 17.6 3.438 22.097 8.205 23.681999 C 8.805 23.795 9.025 23.424 9.025 23.105 C 9.025 22.82 9.015 22.065001 9.01 21.065001 C 5.672 21.789 4.968 19.455 4.968 19.455 C 4.422 18.07 3.633 17.700001 3.633 17.700001 C 2.546 16.955999 3.717 16.971001 3.717 16.971001 C 4.922 17.055 5.555 18.207001 5.555 18.207001 C 6.625 20.042 8.364 19.511999 9.05 19.205 C 9.158 18.429001 9.467 17.9 9.81 17.6 C 7.145 17.299999 4.344 16.268 4.344 11.67 C 4.344 10.36 4.809 9.29 5.579 8.45 C 5.444 8.147 5.039 6.927 5.684 5.274 C 5.684 5.274 6.689 4.952 8.984 6.504 C 9.944 6.237 10.964 6.105 11.984 6.098999 C 13.004 6.105 14.024 6.237 14.984 6.504 C 17.264 4.952 18.268999 5.274 18.268999 5.274 C 18.914 6.927 18.509001 8.147 18.389 8.45 C 19.153999 9.29 19.618999 10.36 19.618999 11.67 C 19.618999 16.280001 16.813999 17.295 14.144 17.59 C 14.564 17.950001 14.954 18.686001 14.954 19.809999 C 14.954 21.416 14.939 22.705999 14.939 23.096001 C 14.939 23.410999 15.149 23.785999 15.764 23.666 C 20.565001 22.091999 24 17.591999 24 12.297 C 24 5.67 18.627001 0.297001 12 0.297001"/>
</svg>
