<svg width="24" height="24" viewBox="0 0 24 24" xmlns="http://www.w3.org/2000/svg" xmlns:xlink="http://www.w3.org/1999/xlink">
    <path id="Path" fill="#5f86ab" stroke="none" d="M 23.954 4.569 C 23.069 4.958 22.124001 5.223 21.129 5.344 C 22.143 4.733 22.923 3.77 23.292 2.621 C 22.341 3.176001 21.287001 3.58 20.165001 3.805 C 19.268999 2.846001 17.992001 2.246 16.573999 2.246 C 13.857 2.246 11.654 4.448999 11.654 7.163 C 11.654 7.552999 11.699 7.927999 11.781 8.287 C 7.691 8.094 4.066 6.130001 1.64 3.160999 C 1.213 3.882999 0.974 4.722 0.974 5.636 C 0.974 7.346001 1.844 8.849 3.162 9.732 C 2.355 9.706 1.596 9.484 0.934 9.116 L 0.934 9.177 C 0.934 11.562 2.627 13.551 4.88 14.004 C 4.467 14.115 4.031 14.175 3.584 14.175 C 3.27 14.175 2.969 14.145 2.668 14.089 C 3.299 16.042 5.113 17.466 7.272 17.506001 C 5.592 18.825001 3.463 19.611 1.17 19.611 C 0.78 19.611 0.391 19.587999 0 19.544001 C 2.189 20.938 4.768 21.753 7.557 21.753 C 16.611 21.753 21.556 14.257 21.556 7.767 C 21.556 7.558001 21.556 7.347 21.541 7.137001 C 22.502001 6.448 23.341 5.577 24.000999 4.589001 L 23.954 4.569 Z"/>
</svg>
