<?xml version="1.0" encoding="UTF-8"?>
<svg width="1200pt" height="1200pt" version="1.1" viewBox="0 0 1200 1200" xmlns="http://www.w3.org/2000/svg">
 <g>
  <path d="m173 819.63c0 7.0391 3.8516 12.934 9.3516 16.496 82.566 145.46 238.79 243.88 417.65 243.88 178.86 0 335.08-98.414 417.64-243.86 5.5078-3.5625 9.3672-9.4609 9.3672-16.508 0-0.21094-0.11328-0.38672-0.12109-0.59766 33.863-65.723 53.109-140.15 53.109-219.03 0-264.67-215.33-480-480-480s-480 215.33-480 480c0 78.887 19.25 153.32 53.117 219.05-0.007813 0.20312-0.12109 0.375-0.12109 0.58203zm427 220.37c-154.27 0-290.16-79.875-368.74-200.37h737.47c-78.574 120.5-214.46 200.37-368.73 200.37zm0-277.1c24.215 0 44.781 15.324 52.902 36.73h-105.8c8.125-21.402 28.684-36.73 52.898-36.73zm0-602.9c242.62 0 440 197.38 440 440 0 71.848-17.422 139.66-48.09 199.63h-297.32c-7.1094-33.652-31.898-60.516-64.047-71.316l106-189.44c5.3984-9.6406 1.9531-21.828-7.6836-27.215-9.6484-5.4102-21.848-1.9531-27.215 7.6836l-114.64 204.87c-40.531 5.5195-73.234 35.84-81.594 75.414l-297.33 0.003906c-30.668-59.965-48.09-127.78-48.09-199.63 0-242.62 197.38-440 440-440z"/>
  <path d="m600 300.8c11.047 0 20-8.9531 20-20v-56.453c0-11.047-8.9531-20-20-20s-20 8.9531-20 20v56.453c0 11.047 8.9531 20 20 20z"/>
  <path d="m919.21 620h56.453c11.047 0 20-8.9531 20-20s-8.9531-20-20-20h-56.453c-11.047 0-20 8.9531-20 20s8.957 20 20 20z"/>
  <path d="m224.35 620h56.453c11.047 0 20-8.9531 20-20s-8.9531-20-20-20h-56.453c-11.047 0-20 8.9531-20 20s8.9531 20 20 20z"/>
  <path d="m825.71 394.29c5.1172 0 10.234-1.9531 14.141-5.8594l39.922-39.914c7.8125-7.8008 7.8125-20.469 0-28.281s-20.469-7.8125-28.281 0l-39.922 39.914c-7.8125 7.8008-7.8125 20.469 0 28.281 3.9102 3.9023 9.0273 5.8594 14.141 5.8594z"/>
  <path d="m360.16 388.43c3.9062 3.9062 9.0234 5.8594 14.141 5.8594s10.234-1.9531 14.141-5.8594c7.8125-7.8125 7.8125-20.48 0-28.281l-39.922-39.914c-7.8125-7.8125-20.469-7.8125-28.281 0s-7.8125 20.48 0 28.281z"/>
  <path d="m501.89 886.59c-11.047 0-20 8.9531-20 20v44.387c0 11.047 8.9531 20 20 20s20-8.9531 20-20v-44.387c0-11.043-8.9531-20-20-20z"/>
  <path d="m600 886.59c-11.047 0-20 8.9531-20 20v44.387c0 11.047 8.9531 20 20 20s20-8.9531 20-20v-44.387c0-11.043-8.9531-20-20-20z"/>
  <path d="m698.11 886.59c-11.047 0-20 8.9531-20 20v44.387c0 11.047 8.9531 20 20 20s20-8.9531 20-20v-44.387c0-11.043-8.9531-20-20-20z"/>
 </g>
</svg>
