<?xml version="1.0" encoding="UTF-8"?>
<svg width="1200pt" height="1200pt" version="1.1" viewBox="0 0 1200 1200" xmlns="http://www.w3.org/2000/svg">
 <path d="m309.38 581.25h-150c-7.4609 0-14.613 2.9648-19.887 8.2383-5.2734 5.2734-8.2383 12.426-8.2383 19.887v468.75c0 7.4609 2.9648 14.613 8.2383 19.887 5.2734 5.2734 12.426 8.2383 19.887 8.2383h150c7.4609 0 14.613-2.9648 19.887-8.2383 5.2734-5.2734 8.2383-12.426 8.2383-19.887v-468.75c0-7.4609-2.9648-14.613-8.2383-19.887-5.2734-5.2734-12.426-8.2383-19.887-8.2383zm-9.375 487.5h-131.25v-450h131.25zm253.12-318.75h-150c-7.4609 0-14.613 2.9648-19.887 8.2383-5.2734 5.2734-8.2383 12.426-8.2383 19.887v300c0 7.4609 2.9648 14.613 8.2383 19.887 5.2734 5.2734 12.426 8.2383 19.887 8.2383h150c7.4609 0 14.613-2.9648 19.887-8.2383 5.2734-5.2734 8.2383-12.426 8.2383-19.887v-300c0-7.4609-2.9648-14.613-8.2383-19.887-5.2734-5.2734-12.426-8.2383-19.887-8.2383zm-9.375 318.75h-131.25v-281.25h131.25zm253.12-637.5h-150c-7.4609 0-14.613 2.9648-19.887 8.2383-5.2734 5.2734-8.2383 12.426-8.2383 19.887v618.75c0 7.4609 2.9648 14.613 8.2383 19.887 5.2734 5.2734 12.426 8.2383 19.887 8.2383h150c7.4609 0 14.613-2.9648 19.887-8.2383 5.2734-5.2734 8.2383-12.426 8.2383-19.887v-618.75c0-7.4609-2.9648-14.613-8.2383-19.887-5.2734-5.2734-12.426-8.2383-19.887-8.2383zm-9.375 637.5h-131.25v-600h131.25zm253.12-168.75h-150c-7.4609 0-14.613 2.9648-19.887 8.2383-5.2734 5.2734-8.2383 12.426-8.2383 19.887v150c0 7.4609 2.9648 14.613 8.2383 19.887 5.2734 5.2734 12.426 8.2383 19.887 8.2383h150c7.4609 0 14.613-2.9648 19.887-8.2383 5.2734-5.2734 8.2383-12.426 8.2383-19.887v-150c0-7.4609-2.9648-14.613-8.2383-19.887-5.2734-5.2734-12.426-8.2383-19.887-8.2383zm-9.375 168.75h-131.25v-131.25h131.25zm-806.25-698.44c12.871 0.027344 25.414-4.043 35.812-11.625l158.06 114.75c-1.1367 4.6016-1.7031 9.3242-1.6875 14.062-0.046875 19.195 8.9531 37.289 24.289 48.832 15.336 11.543 35.215 15.188 53.648 9.832 18.43-5.3516 33.266-19.078 40.027-37.043 6.7656-17.965 4.6719-38.062-5.6523-54.246l173.25-237.75c6.1523 2.1211 12.617 3.1953 19.125 3.1875 3.5195-0.023438 7.0312-0.33984 10.5-0.9375l198.94 375.56c-13.219 13.531-19.41 32.434-16.758 51.164 2.6484 18.73 13.84 35.172 30.293 44.504 16.453 9.3359 36.309 10.508 53.746 3.1758 17.438-7.3359 30.484-22.348 35.32-40.637 4.8359-18.285 0.91016-37.785-10.625-52.777-11.535-14.996-29.371-23.789-48.289-23.805-3.5312-0.007812-7.0508 0.37109-10.5 1.125l-198.94-375.94c10.809-11.164 16.938-26.039 17.133-41.574 0.19531-15.535-5.5547-30.559-16.074-41.996-10.523-11.434-25.016-18.41-40.516-19.504s-30.832 3.7812-42.855 13.621c-12.02 9.8438-19.824 23.914-21.812 39.324s1.9922 30.996 11.125 43.566l-172.12 235.69c-7.0898-2.8672-14.668-4.332-22.312-4.3125-14.598 0.003906-28.707 5.2617-39.75 14.812l-155.44-113.06c1.9531-6.125 2.9648-12.508 3-18.938 0-16.16-6.4219-31.66-17.848-43.09-11.43-11.426-26.93-17.848-43.09-17.848s-31.66 6.4219-43.09 17.848c-11.426 11.43-17.848 26.93-17.848 43.09s6.4219 31.66 17.848 43.09c11.43 11.426 26.93 17.848 43.09 17.848zm750 243.75c3.4414-0.035156 6.8438 0.73438 9.9375 2.25 5.0859 2.3906 9.1445 6.5273 11.434 11.66 2.2891 5.1328 2.6523 10.918 1.0312 16.297-1.6211 5.3828-5.125 10-9.8711 13.012-4.7422 3.0117-10.414 4.2148-15.973 3.3945-5.5586-0.82031-10.637-3.6133-14.309-7.8672s-5.6914-9.6875-5.6875-15.309c0.023438-1.1953 0.14844-2.3867 0.375-3.5625 0.83984-5.5195 3.6289-10.555 7.8555-14.199 4.2305-3.6484 9.625-5.6602 15.207-5.6758zm-276.56-454.69c-0.015625-5 1.5781-9.8711 4.5508-13.891 2.9727-4.0195 7.1641-6.9727 11.949-8.4219 2.2344-0.75391 4.5781-1.1328 6.9375-1.125 3.5273-0.0625 7.0117 0.77734 10.125 2.4375 4.0039 1.8516 7.3867 4.8164 9.75 8.5391 2.3594 3.7266 3.5977 8.0508 3.5625 12.461 0.0625 1.1367-0.066406 2.2773-0.375 3.375-0.74219 5.5781-3.4961 10.691-7.7422 14.387-4.2461 3.6953-9.6914 5.7109-15.32 5.6758-6.1484-0.015625-12.043-2.4375-16.426-6.7461-4.3828-4.3125-6.8984-10.172-7.0117-16.316zm-222.38 304.88c0.67578-0.16406 1.3711-0.22656 2.0625-0.1875 6.2148 0 12.176 2.4688 16.574 6.8633 4.3945 4.3984 6.8633 10.359 6.8633 16.574 0.035156 2.5586-0.40625 5.1055-1.3125 7.5-1.5664 4.6914-4.5898 8.7656-8.625 11.625-3.9102 2.8672-8.6523 4.3789-13.5 4.3125-4.6641-0.011719-9.2266-1.3789-13.125-3.9375l-2.25-1.6875c-5.0859-4.5312-8.0117-11.004-8.0625-17.812-0.015625-5 1.5781-9.8711 4.5508-13.891 2.9727-4.0195 7.1641-6.9727 11.949-8.4219 1.5586-0.59766 3.207-0.91797 4.875-0.9375zm-251.06-178.31c4.957-0.050781 9.8008 1.5117 13.793 4.4531 3.9883 2.9453 6.9141 7.1055 8.332 11.859 0.90234 2.2656 1.3477 4.6875 1.3125 7.125 0.011719 6.1875-2.4297 12.125-6.7891 16.52-4.3555 4.3906-10.273 6.8789-16.461 6.918h-0.1875c-8.375 0-16.109-4.4688-20.297-11.719s-4.1875-16.188 0-23.438 11.922-11.719 20.297-11.719z"/>
</svg>
