<?xml version="1.0" encoding="UTF-8"?>
<svg width="1200pt" height="1200pt" version="1.1" viewBox="0 0 1200 1200" xmlns="http://www.w3.org/2000/svg">
 <g>
  <path d="m636.92 651.69c12.922-12.922 20.309-31.383 20.309-49.848 0-38.77-31.383-70.152-70.152-70.152s-70.152 31.383-70.152 70.152c0 18.461 7.3828 36.922 20.309 49.848l-25.848 108.92c-1.8477 5.5391 0 11.078 3.6914 16.617 3.6914 5.5391 9.2305 7.3828 14.77 7.3828l116.3 0.003907c5.5391 0 11.078-1.8477 14.77-7.3828 3.6914-5.5391 5.5391-11.078 3.6914-16.617zm-83.074 96 24-97.848c1.8477-7.3828-1.8477-14.77-7.3828-20.309-9.2305-5.5391-14.77-16.617-14.77-27.691 0-18.461 14.77-33.23 33.23-33.23 18.461 0 33.23 14.77 33.23 33.23 0 11.078-5.5391 22.152-14.77 27.691-7.3828 3.6914-9.2305 12.922-7.3828 20.309l24 97.848z"/>
  <path d="m1028.3 675.69c11.078 35.078 42.461 59.078 79.383 59.078 46.152 0 83.078-36.922 83.078-83.078 0-46.152-36.922-83.078-83.078-83.078-40.617 0-75.691 29.539-81.23 70.152l-234.46 0.003906v-79.383h144c5.5391 0 9.2305-1.8477 12.922-5.5391l77.539-77.539c11.078 5.5391 22.152 7.3828 33.23 7.3828 46.152 0 83.078-36.922 83.078-83.078 0-46.152-36.922-83.078-83.078-83.078-46.152 0-83.078 36.922-83.078 83.078 0 20.309 7.3828 38.77 20.309 53.539l-68.309 68.309h-138.46c-5.5391-25.848-22.152-46.152-44.309-57.23l127.38-112.62c1.8477-1.8477 3.6914-3.6914 5.5391-5.5391l40.617-92.309c5.5391 1.8477 11.078 1.8477 16.617 1.8477 46.152 0 83.078-36.922 83.078-83.078 0-46.152-36.922-83.078-83.078-83.078-46.152 0-83.078 36.922-83.078 83.078 0 27.691 12.922 51.691 33.23 66.461l-38.77 88.617-118.15 103.38v-42.461c0-77.539-62.77-140.31-140.31-140.31s-140.31 62.77-140.31 140.31v24l-48-68.309v-166.15c36.922-9.2305 64.617-40.617 64.617-81.23 0-46.152-36.922-83.078-83.078-83.078-46.152 0-83.078 36.922-83.078 83.078 0 38.77 27.691 72 64.617 81.23v171.7c0 3.6914 1.8477 7.3828 3.6914 11.078l70.152 99.691c-25.848 11.078-44.309 33.23-49.848 60.922h-116.31l-68.301-68.309c12.922-14.77 20.309-33.23 20.309-53.539 0-46.152-36.922-83.078-83.078-83.078-46.156 0.003906-84.926 36.926-84.926 83.082 0 46.152 36.922 83.078 83.078 83.078 12.922 0 24-1.8477 33.23-7.3828l77.539 77.539c3.6914 3.6914 7.3828 5.5391 12.922 5.5391h121.85v79.383l-210.46-0.003907c-5.5391-38.77-40.617-70.152-81.23-70.152-46.152 0-83.078 36.922-83.078 83.078 0 46.152 36.922 83.078 83.078 83.078 36.922 0 68.309-25.848 79.383-59.078h214.15l0.003906 81.227h-121.85c-5.5391 0-9.2305 1.8477-12.922 5.5391l-64.617 64.617c-14.77-11.078-31.383-16.617-49.848-16.617-46.152 0-83.078 36.922-83.078 83.078 0 46.152 36.922 83.078 83.078 83.078 46.152 0 83.078-36.922 83.078-83.078 0-12.922-3.6914-25.848-9.2305-38.77l60.922-60.922h116.31c9.2305 38.77 42.461 68.309 84.922 68.309h38.77v158.77l-31.383 20.305c-14.77-14.77-35.078-24-57.23-24-46.152 0-83.078 36.922-83.078 83.078 0 46.152 36.922 83.078 83.078 83.078 31.383 0 59.078-16.617 73.848-44.309 11.078-22.152 12.922-46.152 3.6914-68.309 33.23-24 48-25.848 48-42.461v-169.85h81.23v112.62c0 7.3828 3.6914 12.922 11.078 16.617l72 35.078c-12.922 53.539 27.691 101.54 81.23 101.54 46.152 0 83.078-36.922 83.078-83.078 0-46.152-36.922-83.078-83.078-83.078-25.848 0-49.848 12.922-64.617 31.383l-62.77-31.383v-101.54h38.77c42.461 0 75.691-29.539 84.922-68.309h138.46l60.922 60.922c-5.5391 11.078-9.2305 24-9.2305 38.77 0 46.152 36.922 83.078 83.078 83.078 46.152 0 83.078-36.922 83.078-83.078 0-46.152-36.922-83.078-83.078-83.078-18.461 0-35.078 5.5391-49.848 16.617l-64.617-64.617c-1.8398 1.8477-7.3789 0-12.918 0h-144v-79.383h236.31zm79.383-70.152c25.848 0 46.152 20.309 46.152 46.152 0 25.848-20.309 46.152-46.152 46.152-25.848 0-46.152-20.309-46.152-46.152 0-24 20.309-46.152 46.152-46.152zm-46.152-251.08c25.848 0 46.152 20.309 46.152 46.152 0 25.848-20.309 46.152-46.152 46.152-25.848 0-46.152-20.309-46.152-46.152-0.003907-25.844 20.305-46.152 46.152-46.152zm-125.54-228.92c25.848 0 46.152 20.309 46.152 46.152 0 25.848-20.309 46.152-46.152 46.152-25.848 0-46.152-20.309-46.152-46.152s20.305-46.152 46.152-46.152zm-600-27.691c0-25.848 20.309-46.152 46.152-46.152 25.848 0 46.152 20.309 46.152 46.152 0 25.848-20.309 46.152-46.152 46.152s-46.152-20.309-46.152-46.152zm-243.69 302.77c0-25.848 20.309-46.152 46.152-46.152 25.848 0 46.152 20.309 46.152 46.152 0 25.848-20.309 46.152-46.152 46.152s-46.152-20.309-46.152-46.152zm0 297.23c-25.848 0-46.152-20.309-46.152-46.152 0-25.848 20.309-46.152 46.152-46.152 25.848 0 46.152 20.309 46.152 46.152s-20.309 46.152-46.152 46.152zm44.309 241.84c-25.848 0-46.152-20.309-46.152-46.152 0-25.848 20.309-46.152 46.152-46.152 25.848 0 46.152 20.309 46.152 46.152 0 24-20.309 46.152-46.152 46.152zm324.92 184.62c-7.3828 14.77-24 24-40.617 24-25.848 0-46.152-20.309-46.152-46.152 0-25.848 20.309-46.152 46.152-46.152 35.078-0.003906 59.078 35.074 40.617 68.305zm330.46-123.69c25.848 0 46.152 20.309 46.152 46.152 0 25.848-20.309 46.152-46.152 46.152-25.848 0-46.152-20.309-46.152-46.152 0-25.848 20.305-46.152 46.152-46.152zm-203.08-714.46c57.23 0 103.38 46.152 103.38 103.38v64.617h-206.77v-64.617c0-57.227 46.152-103.38 103.38-103.38zm166.16 489.23c0 27.691-22.152 49.848-49.848 49.848h-232.61c-27.691 0-49.848-22.152-49.848-49.848v-234.46c0-27.691 22.152-49.848 49.848-49.848h232.62c27.691 0 49.848 22.152 49.848 49.848zm308.3 72c25.848 0 46.152 20.309 46.152 46.152 0 25.848-20.309 46.152-46.152 46.152-25.848 0-46.152-20.309-46.152-46.152s20.309-46.152 46.152-46.152z"/>
 </g>
</svg>
